# xmcd
#
# Track frame offsets:
#	150
#	13123
#	26245
#	38839
#	51387
#	63691
#	76227
#	88119
#	102099
#	115274
#	128548
#	142143
#	154634
#	168017
#	181337
#	194500
#	207073
#	219235
#	232074
#	246415
#	260437
#	273632
#	286881
#
# Disc length: 3987 seconds
#
# Revision: 0
# Processed by: cddbd v1.4PL0 Copyright (c) Steve Scherf et al.
# Submitted via: dBpowerAMP V4.0
#
DISCID=500f9117
DTITLE=Kessinger Brothers - Complete Recorded Works In Chronological Order. Vol. 1, 1928-1929
DYEAR=1900
DGENRE=Mountain Fiddle
TTITLE0=Chicken In The Barnyard
TTITLE1=Forked Deer
TTITLE2=Hell Among The Yearlings
TTITLE3=Patty On The Turnpike
TTITLE4=Devil's Dream
TTITLE5=Wild Horse
TTITLE6=Wednesday Night Waltz
TTITLE7=Goodnight Waltz
TTITLE8=Garfield March
TTITLE9=Kanawha March
TTITLE10=Sixteen Days In Georgia
TTITLE11=Girl I Left Behind Me
TTITLE12=Arkansas Traveler
TTITLE13=Turkey In The Straw
TTITLE14=Old Jake Gillie
TTITLE15=Sally Johnson
TTITLE16=Portsmouth
TTITLE17=Wild Goose Chase
TTITLE18=Dill Pickles Rag
TTITLE19=Tug Boat
TTITLE20=Johnny Bring The Jug Round The Hill
TTITLE21=Birdie
TTITLE22=Mississippi Sawyer
EXTD=hale
EXTT0=
EXTT1=
EXTT2=
EXTT3=
EXTT4=
EXTT5=
EXTT6=
EXTT7=
EXTT8=
EXTT9=
EXTT10=
EXTT11=
EXTT12=
EXTT13=
EXTT14=
EXTT15=
EXTT16=
EXTT17=
EXTT18=
EXTT19=
EXTT20=
EXTT21=
EXTT22=
PLAYORDER=
